<?xml version="1.0" encoding="utf-8"?>
<!-- Generator: Adobe Illustrator 28.0.0, SVG Export Plug-In . SVG Version: 6.00 Build 0)  -->
<svg version="1.1" id="Layer_1" xmlns="http://www.w3.org/2000/svg" xmlns:xlink="http://www.w3.org/1999/xlink" x="0px" y="0px"
	 viewBox="0 0 640 480" style="enable-background:new 0 0 640 480;" xml:space="preserve">
<g>
	<path d="M142.32,218.88l-6.83,32.16c-3.81-6.38-10.02-9.56-18.63-9.56c-6.95,0-12.94,2.07-17.95,6.21
		c-5.01,4.14-8.61,9.19-10.81,15.15c-2.19,5.96-3.29,12.33-3.29,19.12c0,8.28,1.95,14.84,5.84,19.68c3.89,4.84,9.77,7.27,17.64,7.27
		c7.7,0,13.58-2.98,17.64-8.94c-0.41,1.9-0.7,3.31-0.87,4.22l-0.5,3.1h23.47l18.75-88.43H142.32z M130.33,278.81
		c-0.7,2.86-2.07,5.49-4.1,7.89c-2.03,2.4-4.58,3.6-7.64,3.6c-6.04,0-9.07-3.48-9.07-10.43c0-3.06,0.37-6.01,1.12-8.82
		c0.74-2.82,2.15-5.36,4.22-7.64c2.07-2.28,4.68-3.41,7.83-3.41c2.9,0,5.07,0.95,6.52,2.86c1.45,1.9,2.17,4.3,2.17,7.2
		C131.39,273.03,131.04,275.95,130.33,278.81z"/>
	<path d="M204.59,241.61c-11.35,0-20.53,3.52-27.57,10.56c-7.04,7.04-10.56,16.19-10.56,27.45c0,10.18,2.9,17.66,8.69,22.42
		c5.8,4.76,13.7,7.14,23.72,7.14c18.46,0,29.85-6.91,34.16-20.74h-23.85c-1.58,3.32-4.6,4.97-9.07,4.97c-7.2,0-10.8-3.56-10.8-10.68
		c0-0.58,0.04-1.16,0.12-1.74h46.33c0.66-3.56,0.99-6.92,0.99-10.06c0-9.19-2.83-16.37-8.5-21.55
		C222.57,244.2,214.69,241.61,204.59,241.61z M213.78,268.19h-22.35c0.91-3.4,2.5-6.02,4.78-7.89c2.28-1.86,4.95-2.8,8.01-2.8
		c2.9,0,5.22,0.85,6.96,2.55c1.73,1.7,2.6,3.95,2.6,6.77V268.19z"/>
	<path d="M278.53,241.61c-4.06,0-7.87,0.35-11.43,1.06s-6.93,1.87-10.12,3.48c-3.19,1.61-5.71,3.95-7.57,7.02
		c-1.86,3.06-2.8,6.7-2.8,10.93c0,9.36,5.75,15.15,17.27,17.39c0.91,0.17,1.99,0.37,3.23,0.62c1.24,0.25,2.21,0.43,2.92,0.56
		c0.71,0.13,1.55,0.29,2.55,0.5c0.99,0.21,1.76,0.39,2.3,0.56c0.54,0.17,1.16,0.37,1.87,0.62s1.22,0.5,1.55,0.74
		c0.33,0.25,0.68,0.54,1.06,0.87c0.37,0.33,0.62,0.73,0.74,1.18c0.13,0.46,0.19,0.93,0.19,1.43c0,3.39-2.69,5.09-8.08,5.09
		c-5.88,0-8.82-2.32-8.82-6.95v-0.75h-22.6c0,0.41-0.02,0.83-0.06,1.24c-0.05,0.41-0.07,0.7-0.07,0.87c0,4.06,0.92,7.51,2.74,10.37
		s4.3,5.01,7.45,6.46c3.15,1.45,6.37,2.48,9.68,3.1c3.31,0.62,6.83,0.93,10.56,0.93c4.14,0,8.05-0.41,11.74-1.24
		c3.69-0.83,7.21-2.11,10.56-3.85c3.35-1.74,6-4.2,7.95-7.39c1.95-3.19,2.92-6.94,2.92-11.24c0-2.57-0.29-4.82-0.87-6.77
		c-0.58-1.95-1.57-3.6-2.98-4.97c-1.41-1.37-2.71-2.46-3.91-3.29c-1.2-0.83-3-1.57-5.4-2.23c-2.4-0.66-4.27-1.14-5.59-1.43
		s-3.43-0.68-6.33-1.18c-0.17,0-0.52-0.04-1.06-0.13c-0.54-0.08-0.93-0.14-1.18-0.19c-0.25-0.04-0.62-0.12-1.12-0.25
		c-0.5-0.12-0.89-0.25-1.18-0.37c-0.29-0.13-0.64-0.27-1.05-0.43c-0.41-0.17-0.75-0.37-1-0.62s-0.48-0.52-0.68-0.81
		c-0.21-0.29-0.37-0.62-0.5-0.99c-0.13-0.37-0.19-0.77-0.19-1.18c0-1.49,0.64-2.69,1.93-3.6c1.28-0.91,2.96-1.37,5.03-1.37
		c4.97,0,7.45,1.86,7.45,5.59c0,0.41-0.04,0.75-0.12,1h22.23v-1.87C307.72,247.78,297.99,241.61,278.53,241.61z"/>
	<path d="M352.42,218.88l3.06-14.4c0.83-3.64,1.99-6.6,3.48-8.88c1.49-2.28,3.77-3.41,6.83-3.41c1.99,0,3.56,0.6,4.72,1.8
		c1.16,1.2,1.74,2.84,1.74,4.9c0,1-0.29,3.02-0.87,6.09l-7.33,34.53h24.59l7.08-33.9l0.25-1.37c0.17-0.99,0.29-1.67,0.37-2.05
		c0.08-0.37,0.29-1.06,0.62-2.05c0.33-1,0.64-1.76,0.93-2.3c0.29-0.54,0.7-1.18,1.24-1.92c0.54-0.75,1.12-1.32,1.74-1.74
		c0.62-0.41,1.37-0.79,2.23-1.12c0.87-0.33,1.84-0.5,2.92-0.5c2.07,0,3.71,0.6,4.9,1.81c1.2,1.2,1.8,2.75,1.8,4.66
		c0,1.49-0.33,3.64-0.99,6.46l-7.21,34.03h24.84l7.45-34.9c1.08-4.88,1.62-9.15,1.62-12.79c0-5.55-1.8-9.98-5.41-13.29
		c-3.6-3.31-8.42-4.97-14.47-4.97c-8.28,0-15.53,3.56-21.74,10.68c-1.74-7.12-7.29-10.68-16.64-10.68
		c-8.12,0-15.19,3.36-21.24,10.06l1.74-8.2h-23.6l-13.66,64.09h24.59l0.74-3.49"/>
	<polygon points="309.86,307.31 334.45,307.31 348,243.23 323.53,243.23 	"/>
	<path d="M403.78,243.23l-1.74,8.07c-3.89-6.62-10.22-9.94-19-9.94c-9.52,0-17.08,3.61-22.67,10.81
		c-5.59,7.21-8.38,15.74-8.38,25.59c0,7.78,2.17,13.95,6.52,18.51c4.35,4.56,10.2,6.83,17.58,6.83c7.12,0,12.59-2.36,16.39-7.08
		l-1.49,6.46c-0.5,2.32-0.89,3.89-1.18,4.72c-0.29,0.82-0.81,1.96-1.55,3.41c-0.75,1.45-1.76,2.44-3.04,2.98
		c-1.28,0.54-2.88,0.81-4.78,0.81c-4.88,0-7.45-2.23-7.7-6.7h-24.46v1.49c0,13.17,10.18,19.75,30.55,19.75
		c11.26,0,19.56-1.99,24.9-5.96c5.34-3.97,9.09-11.01,11.24-21.12l12.54-58.62H403.78z M394.53,281.73
		c-2.44,3.48-5.53,5.22-9.25,5.22c-2.98,0-5.3-0.93-6.95-2.8c-1.66-1.86-2.48-4.45-2.48-7.76c0-4.47,1.14-8.51,3.41-12.11
		c2.28-3.6,5.53-5.4,9.75-5.4c2.98,0,5.26,0.91,6.83,2.73c1.57,1.82,2.36,4.22,2.36,7.21C398.2,273.94,396.97,278.25,394.53,281.73z
		"/>
	<path d="M483.81,241.49c-8.53,0-15.69,3.31-21.48,9.94l1.86-8.2h-23.72l-13.54,64.09h24.59l7.33-34.9
		c1.65-7.95,5.47-11.92,11.43-11.92c2.23,0,3.97,0.6,5.21,1.8c1.24,1.2,1.87,2.88,1.87,5.03c0,0.83-0.17,2.07-0.5,3.73l-7.7,36.27
		H494l8.2-38.63c0.83-3.89,1.24-7.25,1.24-10.06c0-5.14-1.8-9.27-5.41-12.42C494.43,243.06,489.69,241.49,483.81,241.49z"/>
	<path d="M503.72,151.08l-6.83,32.17c-3.81-6.38-10.02-9.56-18.63-9.56c-6.95,0-12.94,2.07-17.95,6.21
		c-5.01,4.14-8.61,9.19-10.81,15.15c-2.19,5.96-3.29,12.34-3.29,19.12c0,8.28,1.95,14.84,5.84,19.68c3.89,4.84,9.77,7.27,17.64,7.27
		c7.7,0,13.58-2.98,17.64-8.94c-0.41,1.9-0.7,3.31-0.87,4.22l-0.5,3.1h23.47l18.75-88.43H503.72z M491.74,211.01
		c-0.7,2.86-2.07,5.49-4.1,7.89c-2.03,2.4-4.58,3.6-7.64,3.6c-6.04,0-9.07-3.48-9.07-10.43c0-3.06,0.37-6.01,1.12-8.82
		c0.74-2.82,2.15-5.36,4.22-7.64c2.07-2.28,4.68-3.41,7.82-3.41c2.9,0,5.07,0.95,6.52,2.86c1.45,1.9,2.17,4.3,2.17,7.2
		C492.79,205.23,492.44,208.15,491.74,211.01z"/>
	<polygon points="529.72,235.63 524.51,260.22 550.09,260.22 555.18,235.63 	"/>
</g>
</svg>
